<svg id="LOGOTYP" xmlns="http://www.w3.org/2000/svg" width="259.326" height="32.591" viewBox="0 0 259.326 32.591">
  <path id="Path_44" data-name="Path 44" d="M204.58,939.5c-.22,0-.439.044-.659.044l-1.01-3.118a3.812,3.812,0,0,0,1.494-3.074,3.855,3.855,0,0,0-7.291-1.758l-10.191-1.36a3.5,3.5,0,0,0-6.9.833v.088l-8.7,2.987a3.622,3.622,0,0,0-2.812-1.273,3.72,3.72,0,0,0-3.733,3.689,3.762,3.762,0,0,0,1.494,2.987l-1.538,4.92a4.664,4.664,0,0,0-3.865,4.568,4.6,4.6,0,0,0,4.611,4.568A4.538,4.538,0,0,0,169,951.973l8.565,2.46a6.573,6.573,0,0,0,13.09-.878,1.468,1.468,0,0,0-.045-.439l10.323-4.964a5.094,5.094,0,1,0,3.645-8.653m-4.3-9.092a2.679,2.679,0,1,1-2.679,2.679,2.661,2.661,0,0,1,2.679-2.679M183.364,928.3a2.57,2.57,0,1,1,0,5.139,2.57,2.57,0,0,1,0-5.139m-17.789,7.949a2.591,2.591,0,1,1,2.591,2.592,2.605,2.605,0,0,1-2.591-2.592m-.527,15.637a3.338,3.338,0,1,1,3.337-3.338,3.336,3.336,0,0,1-3.337,3.338m18.492,6.105a4.963,4.963,0,1,1,0-9.927,4.963,4.963,0,1,1,0,9.927m6.105-7.906a6.566,6.566,0,0,0-11.64,1.01l-7.951-1.757a.861.861,0,0,0,.044-.308,4.535,4.535,0,0,0-2.5-4.084l1.185-4.656a3.742,3.742,0,0,0,3.47-3.734,2.957,2.957,0,0,0-.088-.614l8.258-3.251a3.532,3.532,0,0,0,3.074,1.844,3.5,3.5,0,0,0,3.427-2.679l9.75,1.714a3.916,3.916,0,0,0,3.6,3.646l.835,3.689a4.981,4.981,0,0,0-1.625,3.69,5.407,5.407,0,0,0,.132,1.186Zm14.539-2.5a3.536,3.536,0,1,1,0-7.071,3.536,3.536,0,1,1,0,7.071" transform="translate(-160.876 -927.552)" fill="#fff"/>
  <path id="Path_45" data-name="Path 45" d="M542.569,946.3H512.833a1.182,1.182,0,0,0-1.186,1.186,1.22,1.22,0,0,0,1.186,1.23h13.66v16.208a1.208,1.208,0,0,0,2.416,0V948.718h13.659a1.22,1.22,0,0,0,1.187-1.23,1.182,1.182,0,0,0-1.187-1.186m78.273,17.438H598.7a7.511,7.511,0,1,1,0-15.022h22.138a1.219,1.219,0,0,0,1.185-1.23,1.181,1.181,0,0,0-1.185-1.186H598.7a9.905,9.905,0,0,0,0,19.811h22.138a1.186,1.186,0,0,0,0-2.372M431.926,948.718h22.138a1.257,1.257,0,0,0,1.23-1.23,1.219,1.219,0,0,0-1.23-1.186H431.926a9.905,9.905,0,0,0,0,19.811h22.138a1.187,1.187,0,1,0,0-2.372H431.926a7.517,7.517,0,0,1-5.272-12.826,7.448,7.448,0,0,1,5.272-2.2m148.507,0a1.219,1.219,0,0,0,1.186-1.23,1.181,1.181,0,0,0-1.186-1.186h-30a1.181,1.181,0,0,0-1.185,1.186v17.438a1.181,1.181,0,0,0,1.185,1.187h30a1.186,1.186,0,0,0,0-2.372h-28.77v-6.282h28.77a1.208,1.208,0,0,0,0-2.415h-28.77v-6.325Zm-85.959,0a1.219,1.219,0,0,0,1.186-1.23,1.181,1.181,0,0,0-1.186-1.186h-30a1.181,1.181,0,0,0-1.186,1.186v17.438a1.182,1.182,0,0,0,1.186,1.187h30a1.186,1.186,0,1,0,0-2.372H465.659v-6.282h28.814a1.208,1.208,0,0,0,0-2.415H465.659v-6.325Zm11.2-2.416a1.218,1.218,0,0,0-1.229,1.186v17.438a1.219,1.219,0,0,0,1.229,1.187,1.182,1.182,0,0,0,1.186-1.187V947.488a1.181,1.181,0,0,0-1.186-1.186" transform="translate(-362.702 -942.042)" fill="#fff"/>
</svg>
